<svg width="460" height="174" viewBox="0 0 460 174" fill="none" xmlns="http://www.w3.org/2000/svg">
<g clip-path="url(#clip0_385_23021)">
<rect width="460" height="174" rx="16" fill="#101114"/>
<rect x="32" width="238" height="3" rx="1.5" fill="url(#paint0_linear_385_23021)"/>
<path d="M270 2C270 25.244 266.508 48.2603 259.724 69.735C252.939 91.2096 242.995 110.722 230.459 127.158C217.924 143.594 203.041 156.632 186.662 165.527C170.283 174.422 152.728 179 135 179C117.272 179 99.7167 174.422 83.3377 165.527C66.9588 156.632 52.0765 143.594 39.5406 127.158C27.0047 110.722 17.0606 91.2096 10.2763 69.735C3.49188 48.2603 -1.54987e-06 25.244 0 1.99998L135 2H270Z" fill="url(#paint1_radial_385_23021)"/>
<g opacity="0.04">
<rect width="474" height="368.331" transform="translate(-7 -80)" fill="#665EE9"/>
<path d="M-7 -3.94267C-7 -8.94489 -2.9449 -13 2.05733 -13H49.9427C54.9449 -13 59 -8.9449 59 -3.94267V43.9427C59 48.9449 54.9449 53 49.9427 53H2.05733C-2.94489 53 -7 48.9449 -7 43.9427V-3.94267Z" fill="#0F0F0F"/>
<path d="M60.5098 -3.94267C60.5098 -8.94489 64.5649 -13 69.5671 -13H116.452C121.455 -13 125.51 -8.9449 125.51 -3.94267V43.9427C125.51 48.9449 121.455 53 116.452 53H69.5671C64.5649 53 60.5098 48.9449 60.5098 43.9427V-3.94267Z" fill="#0F0F0F"/>
<path d="M127.02 -3.94267C127.02 -8.94489 131.075 -13 136.077 -13H183.962C188.964 -13 193.02 -8.9449 193.02 -3.94267V43.9427C193.02 48.9449 188.964 53 183.962 53H136.077C131.075 53 127.02 48.9449 127.02 43.9427V-3.94267Z" fill="#0F0F0F"/>
<path d="M194.529 -3.94267C194.529 -8.94489 198.584 -13 203.587 -13H251.472C256.474 -13 260.529 -8.9449 260.529 -3.94267V43.9427C260.529 48.9449 256.474 53 251.472 53H203.587C198.584 53 194.529 48.9449 194.529 43.9427V-3.94267Z" fill="#0F0F0F"/>
<path d="M262.039 -3.94267C262.039 -8.94489 266.094 -13 271.096 -13H318.982C323.984 -13 328.039 -8.9449 328.039 -3.94267V43.9427C328.039 48.9449 323.984 53 318.982 53H271.096C266.094 53 262.039 48.9449 262.039 43.9427V-3.94267Z" fill="#0F0F0F"/>
<path d="M329.547 -3.94267C329.547 -8.94489 333.602 -13 338.604 -13H384.49C389.492 -13 393.547 -8.9449 393.547 -3.94267V43.9427C393.547 48.9449 389.492 53 384.49 53H338.604C333.602 53 329.547 48.9449 329.547 43.9427V-3.94267Z" fill="#0F0F0F"/>
<path d="M395.057 -3.94267C395.057 -8.94489 399.112 -13 404.114 -13H451.999C457.002 -13 461.057 -8.9449 461.057 -3.94267V43.9427C461.057 48.9449 457.002 53 451.999 53H404.114C399.112 53 395.057 48.9449 395.057 43.9427V-3.94267Z" fill="#0F0F0F"/>
<path d="M-7 63.0573C-7 58.0551 -2.9449 54 2.05733 54H49.9427C54.9449 54 59 58.0551 59 63.0573V110.943C59 115.945 54.9449 120 49.9427 120H2.05733C-2.94489 120 -7 115.945 -7 110.943V63.0573Z" fill="#0F0F0F"/>
<path d="M60.5098 63.0573C60.5098 58.0551 64.5649 54 69.5671 54H116.452C121.455 54 125.51 58.0551 125.51 63.0573V110.943C125.51 115.945 121.455 120 116.452 120H69.5671C64.5649 120 60.5098 115.945 60.5098 110.943V63.0573Z" fill="#0F0F0F"/>
<path d="M127.02 63.0573C127.02 58.0551 131.075 54 136.077 54H182.962C187.964 54 192.02 58.0551 192.02 63.0573V110.943C192.02 115.945 187.964 120 182.962 120H136.077C131.075 120 127.02 115.945 127.02 110.943V63.0573Z" fill="#0F0F0F"/>
<path d="M193.529 63.0573C193.529 58.0551 197.584 54 202.587 54H250.472C255.474 54 259.529 58.0551 259.529 63.0573V110.943C259.529 115.945 255.474 120 250.472 120H202.587C197.584 120 193.529 115.945 193.529 110.943V63.0573Z" fill="#0F0F0F"/>
<path d="M261.039 63.0573C261.039 58.0551 265.094 54 270.096 54H317.982C322.984 54 327.039 58.0551 327.039 63.0573V110.943C327.039 115.945 322.984 120 317.982 120H270.096C265.094 120 261.039 115.945 261.039 110.943V63.0573Z" fill="#0F0F0F"/>
<path d="M328.547 63.0573C328.547 58.0551 332.602 54 337.604 54H384.49C389.492 54 393.547 58.0551 393.547 63.0573V110.943C393.547 115.945 389.492 120 384.49 120H337.604C332.602 120 328.547 115.945 328.547 110.943V63.0573Z" fill="#0F0F0F"/>
<path d="M395.057 63.0573C395.057 58.0551 399.112 54 404.114 54H451.999C457.002 54 461.057 58.0551 461.057 63.0573V110.943C461.057 115.945 457.002 120 451.999 120H404.114C399.112 120 395.057 115.945 395.057 110.943V63.0573Z" fill="#0F0F0F"/>
<path d="M-7 130.057C-7 125.055 -2.9449 121 2.05733 121H49.9427C54.9449 121 59 125.055 59 130.057V177.943C59 182.945 54.9449 187 49.9427 187H2.05733C-2.94489 187 -7 182.945 -7 177.943V130.057Z" fill="#0F0F0F"/>
<path d="M60.5098 130.057C60.5098 125.055 64.5649 121 69.5671 121H115.452C120.455 121 124.51 125.055 124.51 130.057V177.943C124.51 182.945 120.455 187 115.452 187H69.5671C64.5649 187 60.5098 182.945 60.5098 177.943V130.057Z" fill="#0F0F0F"/>
<path d="M126.02 130.057C126.02 125.055 130.075 121 135.077 121H183.962C188.964 121 193.02 125.055 193.02 130.057V177.943C193.02 182.945 188.964 187 183.962 187H135.077C130.075 187 126.02 182.945 126.02 177.943V130.057Z" fill="#0F0F0F"/>
<path d="M194.529 130.057C194.529 125.055 198.584 121 203.587 121H251.472C256.474 121 260.529 125.055 260.529 130.057V178.943C260.529 183.945 256.474 188 251.472 188H203.587C198.584 188 194.529 183.945 194.529 178.943V130.057Z" fill="#0F0F0F"/>
<path d="M262.039 130.057C262.039 125.055 266.094 121 271.096 121H318.982C323.984 121 328.039 125.055 328.039 130.057V178.943C328.039 183.945 323.984 188 318.982 188H271.096C266.094 188 262.039 183.945 262.039 178.943V130.057Z" fill="#0F0F0F"/>
<path d="M329.547 130.057C329.547 125.055 333.602 121 338.604 121H384.49C389.492 121 393.547 125.055 393.547 130.057V178.943C393.547 183.945 389.492 188 384.49 188H338.604C333.602 188 329.547 183.945 329.547 178.943V130.057Z" fill="#0F0F0F"/>
<path d="M395.057 130.057C395.057 125.055 399.112 121 404.114 121H451.999C457.002 121 461.057 125.055 461.057 130.057V178.943C461.057 183.945 457.002 188 451.999 188H404.114C399.112 188 395.057 183.945 395.057 178.943V130.057Z" fill="#0F0F0F"/>
</g>
</g>
<defs>
<linearGradient id="paint0_linear_385_23021" x1="32" y1="1.5" x2="270" y2="1.5" gradientUnits="userSpaceOnUse">
<stop stop-color="#665EE9" stop-opacity="0"/>
<stop offset="0.5" stop-color="#665EE9"/>
<stop offset="1" stop-color="#665EE9" stop-opacity="0"/>
</linearGradient>
<radialGradient id="paint1_radial_385_23021" cx="0" cy="0" r="1" gradientUnits="userSpaceOnUse" gradientTransform="translate(135 2) rotate(90) scale(177 135)">
<stop stop-color="#665EE9" stop-opacity="0.24"/>
<stop offset="1" stop-color="#665EE9" stop-opacity="0"/>
</radialGradient>
<clipPath id="clip0_385_23021">
<rect width="460" height="174" rx="16" fill="white"/>
</clipPath>
</defs>
</svg>
