<svg width="24" height="25" viewBox="0 0 24 25" fill="none" xmlns="http://www.w3.org/2000/svg">
<g clip-path="url(#clip0_1647_109)">
<mask id="mask0_1647_109" style="mask-type:luminance" maskUnits="userSpaceOnUse" x="0" y="0" width="24" height="25">
<path d="M24 0.5H0V24.5H24V0.5Z" fill="white"/>
</mask>
<g mask="url(#mask0_1647_109)">
<path d="M10.9134 13.5877C10.7223 13.397 10.4945 13.2469 10.2438 13.1465L2.31381 9.9665C2.21912 9.92851 2.13833 9.86246 2.08226 9.77722C2.0262 9.69199 1.99755 9.59164 2.00016 9.48966C2.00278 9.38767 2.03652 9.28892 2.09688 9.20667C2.15723 9.12442 2.2413 9.06259 2.33781 9.0295L21.3378 2.5295C21.4264 2.49749 21.5223 2.49139 21.6143 2.51189C21.7062 2.53239 21.7904 2.57866 21.857 2.64528C21.9236 2.71189 21.9699 2.7961 21.9904 2.88805C22.0109 2.98 22.0048 3.07589 21.9728 3.1645L15.4728 22.1645C15.4397 22.261 15.3779 22.3451 15.2956 22.4054C15.2134 22.4658 15.1146 22.4995 15.0126 22.5021C14.9107 22.5048 14.8103 22.4761 14.7251 22.42C14.6398 22.364 14.5738 22.2832 14.5358 22.1885L11.3558 14.2565C11.255 14.006 11.1045 13.7785 10.9134 13.5877ZM10.9134 13.5877L21.8541 2.64844" stroke="url(#paint0_linear_1647_109)" stroke-width="2" stroke-linecap="round" stroke-linejoin="round"/>
</g>
</g>
<defs>
<linearGradient id="paint0_linear_1647_109" x1="29.3835" y1="-12.3945" x2="13.7967" y2="22.7796" gradientUnits="userSpaceOnUse">
<stop stop-color="#F70129"/>
<stop offset="1" stop-color="#FEB543"/>
</linearGradient>
<clipPath id="clip0_1647_109">
<rect width="24" height="24" fill="white" transform="translate(0 0.5)"/>
</clipPath>
</defs>
</svg>
