<svg width="24" height="25" viewBox="0 0 24 25" fill="none" xmlns="http://www.w3.org/2000/svg">
<g clip-path="url(#clip0_1647_98)">
<mask id="mask0_1647_98" style="mask-type:luminance" maskUnits="userSpaceOnUse" x="0" y="0" width="24" height="25">
<path d="M0.5 1H23.5V24H0.5V1Z" fill="white" stroke="white"/>
</mask>
<g mask="url(#mask0_1647_98)">
<path d="M10 10.5V5.5C10 5.23478 10.1054 4.98043 10.2929 4.79289C10.4804 4.60536 10.7348 4.5 11 4.5H13C13.2652 4.5 13.5196 4.60536 13.7071 4.79289C13.8946 4.98043 14 5.23478 14 5.5V10.5M14 6.5C15.5913 6.5 17.1174 7.13214 18.2426 8.25736C19.3679 9.38258 20 10.9087 20 12.5V15.5M4 15.5V12.5C4 10.9087 4.63214 9.38258 5.75736 8.25736C6.88258 7.13214 8.4087 6.5 10 6.5M21 15.5H3C2.44772 15.5 2 15.9477 2 16.5V18.5C2 19.0523 2.44772 19.5 3 19.5H21C21.5523 19.5 22 19.0523 22 18.5V16.5C22 15.9477 21.5523 15.5 21 15.5Z" stroke="url(#paint0_linear_1647_98)" stroke-width="2" stroke-linecap="round" stroke-linejoin="round"/>
</g>
</g>
<defs>
<linearGradient id="paint0_linear_1647_98" x1="25.4303" y1="-4.8381" x2="5.81637" y2="23.6142" gradientUnits="userSpaceOnUse">
<stop stop-color="#F70129"/>
<stop offset="1" stop-color="#FEB543"/>
</linearGradient>
<clipPath id="clip0_1647_98">
<rect width="24" height="24" fill="white" transform="translate(0 0.5)"/>
</clipPath>
</defs>
</svg>
