<svg width="26" height="25" viewBox="0 0 26 25" fill="none" xmlns="http://www.w3.org/2000/svg">
<g clip-path="url(#clip0_1647_127)">
<mask id="mask0_1647_127" style="mask-type:luminance" maskUnits="userSpaceOnUse" x="0" y="0" width="26" height="25">
<path d="M25.3594 0.28125H0.640625V25H25.3594V0.28125Z" fill="white"/>
</mask>
<g mask="url(#mask0_1647_127)">
<path d="M17.1172 4.39844H19.1771C19.7234 4.39844 20.2473 4.61546 20.6336 5.00177C21.02 5.38807 21.237 5.91201 21.237 6.45833V20.8776C21.237 21.4239 21.02 21.9479 20.6336 22.3342C20.2473 22.7205 19.7234 22.9375 19.1771 22.9375H6.81771C6.27139 22.9375 5.74745 22.7205 5.36114 22.3342C4.97484 21.9479 4.75781 21.4239 4.75781 20.8776V6.45833C4.75781 5.91201 4.97484 5.38807 5.36114 5.00177C5.74745 4.61546 6.27139 4.39844 6.81771 4.39844H8.8776M13 11.6094H17.1198M13 16.7578H17.1198M8.88281 11.6094H8.89323M8.88281 16.7578H8.89323M16.0924 2.34375H9.91276C9.34394 2.34375 8.88281 2.80487 8.88281 3.3737V5.43359C8.88281 6.00242 9.34394 6.46354 9.91276 6.46354H16.0924C16.6613 6.46354 17.1224 6.00242 17.1224 5.43359V3.3737C17.1224 2.80487 16.6613 2.34375 16.0924 2.34375Z" stroke="url(#paint0_linear_1647_127)" stroke-width="2.0599" stroke-linecap="round" stroke-linejoin="round"/>
</g>
</g>
<defs>
<linearGradient id="paint0_linear_1647_127" x1="35.6439" y1="-11.9317" x2="4.75782" y2="27.1957" gradientUnits="userSpaceOnUse">
<stop stop-color="#F70129"/>
<stop offset="1" stop-color="#FEB543"/>
</linearGradient>
<clipPath id="clip0_1647_127">
<rect width="26" height="25" fill="white"/>
</clipPath>
</defs>
</svg>
